<svg width="26" height="26" viewBox="0 0 26 26" fill="none" xmlns="http://www.w3.org/2000/svg">
<path d="M13 0C7.95732 0 3.85938 4.09805 3.85938 9.14062C3.85938 10.8469 4.33174 12.5075 5.23052 13.9395L12.3804 25.6402C12.5023 25.8383 12.6852 25.9602 12.8985 25.9907C13.1878 26.0363 13.5079 25.9145 13.6754 25.625L20.8458 13.8176C21.6988 12.4161 22.1406 10.786 22.1406 9.14062C22.1406 4.09805 18.0427 0 13 0ZM13 13.7109C10.4407 13.7109 8.42969 11.6391 8.42969 9.14062C8.42969 6.6269 10.4863 4.57031 13 4.57031C15.5137 4.57031 17.5703 6.6269 17.5703 9.14062C17.5703 11.6238 15.5898 13.7109 13 13.7109Z" fill="white"/>
<path d="M13 0V4.57031C15.5137 4.57031 17.5703 6.6269 17.5703 9.14063C17.5703 11.6238 15.5898 13.7109 13 13.7109V25.9995C13.2599 26.0056 13.5273 25.881 13.6754 25.625L20.8457 13.8176C21.6988 12.4161 22.1406 10.786 22.1406 9.14063C22.1406 4.09805 18.0427 0 13 0Z" fill="white"/>
</svg>
