<svg width="26" height="26" viewBox="0 0 26 26" fill="none" xmlns="http://www.w3.org/2000/svg">
<path fill-rule="evenodd" clip-rule="evenodd" d="M7.17489 8.37279C7.65149 6.00117 8.34971 4.11373 9.19996 2.73743C10.2243 1.07933 11.5843 -2.10655e-05 13.1613 3.07812e-10C14.7382 2.10661e-05 16.0983 1.07939 17.1226 2.73747C17.9729 4.11377 18.6711 6.00121 19.1477 8.37279H20.6587C21.5137 8.37279 22.2498 8.96588 22.4174 9.78981L25.2871 23.8916C25.5091 24.9823 24.6602 26 23.5284 26H2.79417C1.66235 26 0.813471 24.9823 1.03544 23.8916L3.90513 9.78981C4.0728 8.96587 4.80891 8.37279 5.66386 8.37279H7.17489ZM9.00549 8.37279C9.449 6.31115 10.0578 4.74534 10.7331 3.65226C11.6144 2.22567 12.4963 1.76271 13.1613 1.76272C13.8263 1.76273 14.7082 2.22572 15.5895 3.6523C16.2648 4.74539 16.8736 6.31119 17.3171 8.37279H9.00549Z" fill="white"/>
</svg>
