<svg width="26" height="23" viewBox="0 0 26 23" fill="none" xmlns="http://www.w3.org/2000/svg">
<path fill-rule="evenodd" clip-rule="evenodd" d="M10.7654 16.7933V3.60493C10.7654 2.30759 10.4288 0.906185 9.24093 0.376872C8.09159 -0.135258 6.59474 -0.186928 5.25614 0.608362C4.36785 1.13611 3.92438 2.13609 3.66324 3.13368L0.218323 16.2936C-0.186966 17.8419 -0.0989755 19.5793 1.09299 20.6506C2.47819 21.8957 4.63077 22.8002 7.51533 21.9577C9.68247 21.3247 10.7654 19.045 10.7654 16.7933ZM5.28911 21.1714C7.44929 21.1714 9.20046 19.4254 9.20046 17.2715C9.20046 15.1176 7.44929 13.3715 5.28911 13.3715C3.12893 13.3715 1.37776 15.1176 1.37776 17.2715C1.37776 19.4254 3.12893 21.1714 5.28911 21.1714Z" fill="white"/>
<path fill-rule="evenodd" clip-rule="evenodd" d="M10.7654 16.7933V3.60493C10.7654 2.30759 10.4288 0.906185 9.24093 0.376872C8.09159 -0.135258 6.59474 -0.186928 5.25614 0.608362C4.36785 1.13611 3.92438 2.13609 3.66324 3.13368L0.218323 16.2936C-0.186966 17.8419 -0.0989755 19.5793 1.09299 20.6506C2.47819 21.8957 4.63077 22.8002 7.51533 21.9577C9.68247 21.3247 10.7654 19.045 10.7654 16.7933ZM5.28911 21.1714C7.44929 21.1714 9.20046 19.4254 9.20046 17.2715C9.20046 15.1176 7.44929 13.3715 5.28911 13.3715C3.12893 13.3715 1.37776 15.1176 1.37776 17.2715C1.37776 19.4254 3.12893 21.1714 5.28911 21.1714Z" fill="white"/>
<path fill-rule="evenodd" clip-rule="evenodd" d="M15.2346 16.7933V3.60493C15.2346 2.30759 15.5712 0.906185 16.7591 0.376872C17.9084 -0.135258 19.4053 -0.186928 20.7439 0.608362C21.6321 1.13611 22.0756 2.13609 22.3368 3.13368L25.7817 16.2936C26.187 17.8419 26.099 19.5793 24.907 20.6506C23.5218 21.8957 21.3692 22.8002 18.4847 21.9577C16.3175 21.3247 15.2346 19.045 15.2346 16.7933ZM20.7109 21.1714C18.5507 21.1714 16.7995 19.4254 16.7995 17.2715C16.7995 15.1176 18.5507 13.3715 20.7109 13.3715C22.8711 13.3715 24.6222 15.1176 24.6222 17.2715C24.6222 19.4254 22.8711 21.1714 20.7109 21.1714Z" fill="white"/>
<path d="M8.52989 4.45712H17.4701V12H13H8.52989V4.45712Z" fill="white"/>
</svg>
