<svg width="26" height="26" viewBox="0 0 26 26" fill="none" xmlns="http://www.w3.org/2000/svg">
<path d="M0 13.65C0 12.932 0.596954 12.35 1.33333 12.35H24.6667C25.403 12.35 26 12.932 26 13.65V16.9C26 20.4898 23.0152 23.4 19.3333 23.4H6.66667C2.98477 23.4 0 20.4898 0 16.9V13.65Z" fill="white"/>
<path d="M5.26668 26C4.89849 26 4.59306 25.7061 4.66583 25.3541C4.97303 23.8686 6.31921 22.75 7.93335 22.75H17.4058C19.0199 22.75 20.3661 23.8686 20.6733 25.3541C20.7461 25.7061 20.4406 26 20.0725 26H18.9789C18.7409 26 18.5251 25.8731 18.3831 25.687C17.7755 24.8908 16.803 24.375 15.707 24.375H9.63224C8.53619 24.375 7.5637 24.8908 6.95615 25.687C6.8141 25.8731 6.5983 26 6.36032 26H5.26668Z" fill="white"/>
<path d="M24 4.42528V12.35H21.5385V4.42528C21.5385 1.82501 18.3077 1.20816 18.3077 3.80844V3.98263H16V3.80844C16 -1.66336 24 -1.04652 24 4.42528Z" fill="white"/>
<path d="M17.6667 5.85C17.6667 5.49101 17.3682 5.2 17 5.2C16.6318 5.2 16.3333 5.49101 16.3333 5.85V6.5C16.3333 6.85898 16.6318 7.15 17 7.15C17.3682 7.15 17.6667 6.85898 17.6667 6.5V5.85Z" fill="white"/>
<path d="M17.6667 9.1C17.6667 8.74101 17.3682 8.45 17 8.45C16.6318 8.45 16.3333 8.74101 16.3333 9.1V9.75C16.3333 10.109 16.6318 10.4 17 10.4C17.3682 10.4 17.6667 10.109 17.6667 9.75V9.1Z" fill="white"/>
</svg>
