<svg width="26" height="23" viewBox="0 0 26 23" fill="none" xmlns="http://www.w3.org/2000/svg">
<path d="M0 11.05C0 9.25507 1.45507 7.8 3.25 7.8H22.75C24.5449 7.8 26 9.25507 26 11.05V14.625C26 16.4199 24.5449 17.875 22.75 17.875H3.25C1.45507 17.875 0 16.4199 0 14.625V11.05Z" fill="white"/>
<path d="M2.925 18.3625C2.925 16.8368 4.16181 15.6 5.6875 15.6C7.21319 15.6 8.45 16.8368 8.45 18.3625V19.6625C8.45 21.1882 7.21319 22.425 5.6875 22.425C4.16181 22.425 2.925 21.1882 2.925 19.6625V18.3625Z" fill="white"/>
<path d="M18.2 18.2C18.2 16.7641 19.3641 15.6 20.8 15.6C22.2359 15.6 23.4 16.7641 23.4 18.2V19.825C23.4 21.2609 22.2359 22.425 20.8 22.425C19.3641 22.425 18.2 21.2609 18.2 19.825V18.2Z" fill="white"/>
<path fill-rule="evenodd" clip-rule="evenodd" d="M2.97647 7.48882L4.25359 2.45132C4.61909 1.00962 5.91661 0 7.40392 0H18.7783C20.3308 0 21.6666 1.09807 21.9669 2.62126L22.9602 7.65876C23.3563 9.66739 21.8189 11.5375 19.7716 11.5375H6.12681C4.00801 11.5375 2.45578 9.54265 2.97647 7.48882ZM6.9725 7.8H19.0503C19.4545 7.8 19.7606 7.43506 19.6904 7.03704L18.9448 2.81204C18.89 2.50143 18.6201 2.275 18.3047 2.275H7.84236C7.53389 2.275 7.26791 2.4918 7.20571 2.79393L6.33586 7.01893C6.25284 7.42215 6.56082 7.8 6.9725 7.8Z" fill="white"/>
</svg>
