<svg width="26" height="21" viewBox="0 0 26 21" fill="none" xmlns="http://www.w3.org/2000/svg">
<path d="M2.97119 1.85714C2.97119 0.831472 3.80266 0 4.82833 0H7.79976C8.82544 0 9.65691 0.831471 9.65691 1.85714V6.31429C9.65691 7.33996 8.82544 8.17143 7.79976 8.17143H4.82833C3.80266 8.17143 2.97119 7.33996 2.97119 6.31429V1.85714Z" fill="white"/>
<path fill-rule="evenodd" clip-rule="evenodd" d="M1.85714 4.08594C0.831471 4.08594 0 4.91741 0 5.94308V18.5717C0 19.5973 0.831472 20.4288 1.85714 20.4288H24.1429C25.1685 20.4288 26 19.5973 26 18.5717V5.94308C26 4.91741 25.1685 4.08594 24.1429 4.08594H1.85714ZM16.7143 17.0859C19.381 17.0859 21.5429 14.9241 21.5429 12.2574C21.5429 9.59062 19.381 7.42879 16.7143 7.42879C14.0475 7.42879 11.8857 9.59062 11.8857 12.2574C11.8857 14.9241 14.0475 17.0859 16.7143 17.0859Z" fill="white"/>
<path d="M16.7143 8.91406L17.5065 11.3522H20.0701L17.9961 12.8591L18.7883 15.2973L16.7143 13.7904L14.6402 15.2973L15.4324 12.8591L13.3584 11.3522H15.9221L16.7143 8.91406Z" fill="white"/>
</svg>
