<svg width="26" height="26" viewBox="0 0 26 26" fill="none" xmlns="http://www.w3.org/2000/svg">
<path d="M6.70765 2.70833C6.70765 1.21256 7.98806 0 9.56753 0H16.4312C18.0107 0 19.2911 1.21256 19.2911 2.70833V11.9167C19.2911 12.2158 19.035 12.4583 18.7192 12.4583H7.27963C6.96373 12.4583 6.70765 12.2158 6.70765 11.9167V2.70833Z" fill="white"/>
<path d="M19.2911 14.0833H6.70765C6.27212 14.0833 5.11114 15.4854 5.00026 18.9568C4.99071 19.2558 5.2478 19.5 5.5637 19.5H20.4351C20.751 19.5 21.008 19.2555 20.9998 18.9564C20.9019 15.3611 19.8365 14.2063 19.2911 14.0833Z" fill="white"/>
<path d="M6.13568 18.9583C6.13568 18.6592 6.39176 18.4167 6.70765 18.4167H7.8516C8.1675 18.4167 8.42358 18.6592 8.42358 18.9583V25.4583C8.42358 25.7575 8.1675 26 7.8516 26H6.70765C6.39176 26 6.13568 25.7575 6.13568 25.4583V18.9583Z" fill="white"/>
<path d="M17.5752 18.9583C17.5752 18.6592 17.8313 18.4167 18.1472 18.4167H19.2911C19.607 18.4167 19.8631 18.6592 19.8631 18.9583V25.4583C19.8631 25.7575 19.607 26 19.2911 26H18.1472C17.8313 26 17.5752 25.7575 17.5752 25.4583V18.9583Z" fill="white"/>
</svg>
