<svg width="26" height="26" viewBox="0 0 26 26" fill="none" xmlns="http://www.w3.org/2000/svg">
<path d="M20 8.66667L18.6 0H7.4L6 8.66667C6 10.5821 6.7375 12.4191 8.05025 13.7735C9.02968 14.7841 10.2695 15.4642 11.6069 15.7445C11.6023 15.792 11.6 15.8401 11.6 15.8889V23.1111H7.4C6.6268 23.1111 6 23.7578 6 24.5556C6 25.3533 6.6268 26 7.4 26H18.6C19.3732 26 20 25.3533 20 24.5556C20 23.7578 19.3732 23.1111 18.6 23.1111H14.4V15.8889C14.4 15.8401 14.3977 15.792 14.3931 15.7445C15.7305 15.4642 16.9703 14.7841 17.9497 13.7735C19.2625 12.4191 20 10.5821 20 8.66667Z" fill="white"/>
</svg>
