<svg width="30" height="30" viewBox="0 0 30 30" fill="none" xmlns="http://www.w3.org/2000/svg">
<g clip-path="url(#clip0)">
<path d="M19.8862 15.1537L30 21.5475V8.48999L19.8862 15.1537Z" fill="white"/>
<g clip-path="url(#clip1)">
<path d="M0 8.48999V21.5475L10.1138 15.1537L0 8.48999Z" fill="white"/>
</g>
<path d="M28.125 4.6875H1.87496C0.939338 4.6875 0.196838 5.385 0.0562134 6.28313L15 16.1287L29.9437 6.28313C29.8031 5.385 29.0606 4.6875 28.125 4.6875Z" fill="white"/>
<path d="M18.1687 16.2863L15.5156 18.0338C15.3581 18.1369 15.1799 18.1875 14.9999 18.1875C14.8199 18.1875 14.6418 18.1369 14.4843 18.0338L11.8312 16.2844L0.0599365 23.73C0.204312 24.6207 0.943062 25.3125 1.87494 25.3125H28.1249C29.0568 25.3125 29.7956 24.6207 29.9399 23.73L18.1687 16.2863Z" fill="white"/>
</g>
<defs>
<clipPath id="clip0">
<rect width="30" height="30" fill="white"/>
</clipPath>
<clipPath id="clip1">
<rect width="10.1138" height="13.0575" fill="white" transform="translate(0 8.48999)"/>
</clipPath>
</defs>
</svg>
