<svg width="22" height="26" viewBox="0 0 22 26" fill="none" xmlns="http://www.w3.org/2000/svg">
<path d="M2.11083 0.34201C2.60216 0.4854 2.88751 1.01154 2.74818 1.51718C2.16948 3.61729 1.52944 7.64697 1.83533 7.64697H2.4471H4.07785V1.25755C4.07785 0.731973 4.49185 0.305908 5.00255 0.305908C5.51326 0.305908 5.92726 0.731973 5.92726 1.25755V7.64697C6.42365 7.64697 6.51785 7.64588 6.72954 7.64697C6.96451 7.64819 7.03542 7.64697 7.34131 7.64697C7.6472 7.64697 7.2246 7.64704 7.6472 7.64697C7.95309 7.64697 7.93307 7.70986 7.93851 7.07794C7.94937 5.81403 7.77981 4.41903 7.60146 3.32066C7.51298 2.77576 7.4238 2.31264 7.35697 1.98676C7.32359 1.82396 7.29586 1.6958 7.27668 1.60924C7.2671 1.56597 7.25966 1.53312 7.25473 1.51158L7.24927 1.48786L7.24785 1.48176C7.12767 0.971049 7.43241 0.456505 7.92866 0.332697C8.42499 0.208871 8.92488 0.522561 9.0452 1.03334L9.04609 1.03711L9.04802 1.04543L9.05492 1.07537C9.06082 1.10114 9.06925 1.13839 9.07985 1.18624C9.10104 1.28193 9.13092 1.42011 9.16653 1.59373C9.23768 1.9407 9.33201 2.4307 9.42558 3.00696C9.61133 4.15089 9.8001 5.6703 9.78785 7.09478C9.78172 7.80706 9.72533 8.52488 9.58065 9.1744C9.43822 9.81385 9.25386 10.4003 8.33619 11.0117C7.41853 11.6232 5.92726 11.6574 5.92726 11.6574V25.0486C5.92726 25.5742 5.51326 26.0003 5.00255 26.0003C4.49185 26.0003 4.07785 25.5742 4.07785 25.0486V11.6546C3.05888 11.6235 2.54844 11.4197 1.83533 11.0117C0.796419 10.4174 0.21944 9.70353 0.0771384 8.59037C-0.215284 6.30288 0.37632 3.14848 0.96892 0.99792C1.10825 0.49228 1.6195 0.19862 2.11083 0.34201Z" fill="white"/>
<path fill-rule="evenodd" clip-rule="evenodd" d="M17.8181 1.22363C18.3249 1.22363 18.7357 1.63863 18.7357 2.15057V24.7677C18.7357 25.2797 18.3249 25.6947 17.8181 25.6947C17.3112 25.6947 16.9004 25.2797 16.9004 24.7677V2.15057C16.9004 1.63863 17.3112 1.22363 17.8181 1.22363Z" fill="white"/>
<path d="M21.7948 5.81187C21.7948 9.02168 19.8775 11.6237 17.5124 11.6237C15.1473 11.6237 13.23 9.02168 13.23 5.81187C13.23 2.60206 15.1473 0 17.5124 0C19.8775 0 21.7948 2.60206 21.7948 5.81187Z" fill="white"/>
</svg>
