<svg width="34" height="34" viewBox="0 0 34 34" fill="none" xmlns="http://www.w3.org/2000/svg">
<path d="M33.9381 8.11633L31.5096 0.830601C31.3443 0.334475 30.8801 -0.000142254 30.3572 4.53681e-08H3.64286C3.11998 -0.000142254 2.65573 0.334475 2.49052 0.830601L0.0619002 8.11633C0.0244755 8.22974 0.00355748 8.34792 0 8.46724C0 8.4794 0 8.48787 0 8.50004V9.71435C0.00441128 11.6169 0.904099 13.4064 2.42855 14.5448C2.42855 14.5545 2.42855 14.5618 2.42855 14.5714V30.3572C2.42855 32.3691 4.05951 34.0001 6.07141 34.0001H27.9286C29.9405 34.0001 31.5714 32.3691 31.5714 30.3572V14.5714C31.5714 14.5617 31.5714 14.5544 31.5714 14.5448C33.0959 13.4064 33.9957 11.6169 34 9.71435V8.50004C34 8.48787 34 8.4794 34 8.46724C33.9964 8.34785 33.9756 8.22967 33.9381 8.11633ZM25.5 2.42855H29.4817L31.1016 7.28572H25.5V2.42855ZM18.2143 2.42855H23.0715V7.28572H18.2143V2.42855ZM10.9286 2.42855H15.7858V7.28572H10.9286V2.42855ZM4.51836 2.42855H8.50004V7.28572H2.89849L4.51836 2.42855ZM19.4286 31.5714H14.5714V21.8572H19.4286V31.5714ZM29.1429 30.3572C29.1429 31.0279 28.5992 31.5715 27.9286 31.5715H21.8572V20.6429C21.8572 19.9723 21.3135 19.4286 20.6429 19.4286H13.3571C12.6865 19.4286 12.1428 19.9723 12.1428 20.6429V31.5715H6.07141C5.40076 31.5715 4.8571 31.0279 4.8571 30.3572V15.6643C6.56121 16.0142 8.33326 15.6075 9.71428 14.5496C11.8819 16.1417 14.8324 16.1417 17 14.5496C19.1676 16.1417 22.1181 16.1417 24.2857 14.5496C25.6667 15.6075 27.4388 16.0142 29.1429 15.6643V30.3572ZM27.9286 13.3571C26.8785 13.3565 25.8813 12.8959 25.2001 12.0967C24.7588 11.5918 23.9917 11.5401 23.4867 11.9814C23.4457 12.0172 23.4072 12.0557 23.3714 12.0967C22.0212 13.6037 19.7051 13.7307 18.1982 12.3805C18.0985 12.2912 18.0037 12.1965 17.9143 12.0967C17.4391 11.5918 16.6445 11.5676 16.1395 12.0429C16.121 12.0603 16.103 12.0782 16.0857 12.0967C14.7355 13.6037 12.4194 13.7307 10.9124 12.3805C10.8127 12.2912 10.718 12.1965 10.6286 12.0967C10.1534 11.5918 9.35874 11.5676 8.85379 12.0429C8.83529 12.0603 8.81729 12.0782 8.79993 12.0967C8.11867 12.8959 7.12158 13.3565 6.07141 13.3571C4.05951 13.3571 2.42855 11.7262 2.42855 9.71428H31.5714C31.5714 11.7262 29.9405 13.3571 27.9286 13.3571Z" fill="#0BA79F"/>
</svg>
