<svg width="26" height="26" viewBox="0 0 26 26" fill="none" xmlns="http://www.w3.org/2000/svg">
<path fill-rule="evenodd" clip-rule="evenodd" d="M13.0435 18.087C18.0381 18.087 22.087 14.0381 22.087 9.04348C22.087 4.0489 18.0381 0 13.0435 0C8.0489 0 4 4.0489 4 9.04348C4 14.0381 8.0489 18.087 13.0435 18.087ZM13.1058 10.5247C13.8895 10.5247 14.5247 9.88948 14.5247 9.10585C14.5247 8.32222 13.8895 7.68696 13.1058 7.68696C12.3222 7.68696 11.687 8.32222 11.687 9.10585C11.687 9.88948 12.3222 10.5247 13.1058 10.5247ZM13.1058 2.26087V7.08041C13.1058 7.34991 13.3412 7.55954 13.6001 7.48461C14.5529 7.20882 15.8423 6.38558 15.8423 4.54513C15.8423 2.67581 14.5121 2.00366 13.5555 1.84715C13.3091 1.80683 13.1058 2.01114 13.1058 2.26087ZM11.0804 9.2072H6.26087C6.01114 9.2072 5.80683 9.00398 5.84715 8.75753C6.00366 7.80094 6.67581 6.47076 8.54513 6.47076C10.3856 6.47076 11.2088 7.76018 11.4846 8.71296C11.5595 8.97183 11.3499 9.2072 11.0804 9.2072ZM20.0522 8.70045H15.2326C14.9631 8.70045 14.7535 8.93581 14.8284 9.19469C15.1042 10.1475 15.9275 11.4369 17.7679 11.4369C19.6372 11.4369 20.3094 10.1067 20.4659 9.15012C20.5062 8.90366 20.3019 8.70045 20.0522 8.70045ZM13.2072 11.0299L13.2072 15.8495C13.2072 16.0992 13.004 16.3035 12.7575 16.2632C11.8009 16.1067 10.4708 15.4345 10.4708 13.5652C10.4708 11.7248 11.7602 10.9015 12.713 10.6257C12.9718 10.5508 13.2072 10.7604 13.2072 11.0299Z" fill="white"/>
<path d="M11.0087 18.087C11.0087 17.4626 11.5148 16.9565 12.1391 16.9565H13.9478C14.5721 16.9565 15.0783 17.4626 15.0783 18.087V23.287C15.0783 23.9113 14.5721 24.4174 13.9478 24.4174H12.1391C11.5148 24.4174 11.0087 23.9113 11.0087 23.287V18.087Z" fill="white"/>
<path d="M7.16522 24.1913C7.16522 23.567 7.67133 23.0609 8.29565 23.0609H18.0174C18.6417 23.0609 19.1478 23.567 19.1478 24.1913V24.8696C19.1478 25.4939 18.6417 26 18.0174 26H8.29565C7.67133 26 7.16522 25.4939 7.16522 24.8696V24.1913Z" fill="white"/>
</svg>
