<svg width="26" height="26" viewBox="0 0 26 26" fill="none" xmlns="http://www.w3.org/2000/svg">
<path fill-rule="evenodd" clip-rule="evenodd" d="M7 0C5.34315 0 4 1.34315 4 3V11.05H21.55V3C21.55 1.34315 20.2069 0 18.55 0H7ZM21.55 13H4V23C4 24.6569 5.34315 26 7 26H18.55C20.2069 26 21.55 24.6569 21.55 23V13ZM5.95 15.275C5.95 14.7365 6.38652 14.3 6.925 14.3C7.46348 14.3 7.9 14.7365 7.9 15.275V17.225C7.9 17.7635 7.46348 18.2 6.925 18.2C6.38652 18.2 5.95 17.7635 5.95 17.225V15.275ZM6.925 5.85C6.38652 5.85 5.95 6.28652 5.95 6.825V8.775C5.95 9.31348 6.38652 9.75 6.925 9.75C7.46348 9.75 7.9 9.31348 7.9 8.775V6.825C7.9 6.28652 7.46348 5.85 6.925 5.85Z" fill="white"/>
</svg>
