<svg width="26" height="26" viewBox="0 0 26 26" fill="none" xmlns="http://www.w3.org/2000/svg">
<path fill-rule="evenodd" clip-rule="evenodd" d="M16.3789 0.0554152C16.604 0.115071 16.8138 0.221906 16.9944 0.368831C17.175 0.515756 17.3223 0.699411 17.4265 0.90761C18.2196 2.49542 18.8124 3.45927 19.4084 4.24086C20.0127 5.0323 20.6498 5.67925 21.6218 6.64966C22.6902 7.71625 23.5375 8.98326 24.1151 10.378C24.6928 11.7728 24.9894 13.2679 24.9879 14.7775C24.9162 17.7784 23.6737 20.6321 21.526 22.7291C19.3783 24.8261 16.4956 26 13.494 26C10.4923 26 7.60963 24.8261 5.46192 22.7291C3.3142 20.6321 2.07174 17.7784 2 14.7775C2 11.8384 3.12312 8.89427 5.36609 6.64966C5.59572 6.4201 5.88827 6.26377 6.20674 6.20044C6.52521 6.13711 6.8553 6.16963 7.15529 6.29388C7.45529 6.41813 7.71171 6.62853 7.89213 6.89849C8.07256 7.16845 8.1689 7.48585 8.16897 7.81055C8.16897 9.64959 8.28391 11.0502 8.82249 12.1684C9.11804 12.7825 9.57945 13.3835 10.3742 13.9204C10.5646 12.1783 10.9127 10.0552 11.3824 8.04207C11.7518 6.45591 12.2116 4.87303 12.76 3.55286C13.0342 2.89114 13.3445 2.2639 13.6959 1.7204C14.0375 1.19168 14.4775 0.654743 15.0456 0.275443C15.2395 0.146273 15.4587 0.059848 15.6886 0.0219118C15.9185 -0.0160244 16.1538 -0.00460361 16.3789 0.0554152ZM16.9766 21.5442C16.2883 22.2345 15.4106 22.7049 14.4546 22.8958C13.4987 23.0867 12.5076 22.9895 11.607 22.6165C10.7064 22.2434 9.93675 21.6114 9.39573 20.8005C8.8547 19.9896 8.56661 19.0363 8.56798 18.0615C8.56798 18.0615 10.0113 18.8825 12.673 18.8825C12.673 17.2405 13.494 12.3145 14.7255 11.4935C15.5465 13.1355 16.0161 13.6166 16.9766 14.5789C17.9388 15.5394 18.4199 16.8005 18.4199 18.0615C18.4199 19.3226 17.9388 20.5836 16.9766 21.5442V21.5442Z" fill="white"/>
</svg>
