<svg width="26" height="23" viewBox="0 0 26 23" fill="none" xmlns="http://www.w3.org/2000/svg">
<path d="M22.131 15.1667C22.131 15.594 21.7845 15.9405 21.3571 15.9405C20.9298 15.9405 20.5833 15.594 20.5833 15.1667C20.5833 14.7393 20.9298 14.3929 21.3571 14.3929C21.7845 14.3929 22.131 14.7393 22.131 15.1667Z" fill="white"/>
<path fill-rule="evenodd" clip-rule="evenodd" d="M21.3571 17.9524C23.9213 17.9524 26 15.8737 26 13.3095C26 10.7453 23.9213 8.66667 21.3571 8.66667C18.793 8.66667 16.7143 10.7453 16.7143 13.3095C16.7143 15.8737 18.793 17.9524 21.3571 17.9524ZM19.8095 12.381C20.1514 12.381 20.4286 12.1038 20.4286 11.7619C20.4286 11.42 20.1514 11.1429 19.8095 11.1429C19.4677 11.1429 19.1905 11.42 19.1905 11.7619C19.1905 12.1038 19.4677 12.381 19.8095 12.381ZM23.5238 11.7619C23.5238 12.1038 23.2466 12.381 22.9048 12.381C22.5629 12.381 22.2857 12.1038 22.2857 11.7619C22.2857 11.42 22.5629 11.1429 22.9048 11.1429C23.2466 11.1429 23.5238 11.42 23.5238 11.7619ZM22.9048 15.1667C22.9048 16.0214 22.2119 16.7143 21.3571 16.7143C20.5024 16.7143 19.8095 16.0214 19.8095 15.1667C19.8095 14.3119 20.5024 13.619 21.3571 13.619C22.2119 13.619 22.9048 14.3119 22.9048 15.1667Z" fill="white"/>
<path d="M17.9524 6.80952L16.0952 4.95238H11.7619C11.5977 4.95238 11.4403 4.88716 11.3242 4.77107C11.2081 4.65497 11.1429 4.49752 11.1429 4.33333V0.619048C11.1429 0.454866 11.2081 0.297409 11.3242 0.181315C11.4403 0.0652209 11.5977 0 11.7619 0H17.3333C17.4975 0 17.655 0.0652209 17.7711 0.181315C17.8872 0.297409 17.9524 0.454866 17.9524 0.619048V6.80952Z" fill="white"/>
<path d="M7.42857 3.71429C7.10023 3.71429 6.78527 3.84472 6.55312 4.07691C6.32091 4.3091 6.19048 4.62402 6.19048 4.95238V11.1429C6.19048 11.3932 6.34131 11.619 6.57262 11.7148C6.80393 11.8106 7.07023 11.7576 7.24729 11.5806L8.92307 9.90476H13C13.3283 9.90476 13.6433 9.77432 13.8754 9.54213C14.1077 9.30994 14.2381 8.99503 14.2381 8.66667V7.42857C14.2381 7.08668 13.9609 6.80952 13.619 6.80952C13.2772 6.80952 13 7.08668 13 7.42857V8.66667H8.66667C8.50246 8.66667 8.34505 8.73189 8.22891 8.84798L7.42857 9.64834V4.95238H8.66667C9.00853 4.95238 9.28572 4.67523 9.28572 4.33333C9.28572 3.99144 9.00853 3.71429 8.66667 3.71429H7.42857Z" fill="white"/>
<path fill-rule="evenodd" clip-rule="evenodd" d="M9.28572 18.2619C9.28572 20.8261 7.20701 22.9048 4.64286 22.9048C2.07871 22.9048 0 20.8261 0 18.2619C0 15.6977 2.07871 13.619 4.64286 13.619C7.20701 13.619 9.28572 15.6977 9.28572 18.2619ZM3.71429 16.7143C3.71429 17.0562 3.4371 17.3333 3.09524 17.3333C2.75337 17.3333 2.47619 17.0562 2.47619 16.7143C2.47619 16.3724 2.75337 16.0952 3.09524 16.0952C3.4371 16.0952 3.71429 16.3724 3.71429 16.7143ZM6.19048 17.3333C6.53234 17.3333 6.80952 17.0562 6.80952 16.7143C6.80952 16.3724 6.53234 16.0952 6.19048 16.0952C5.84861 16.0952 5.57143 16.3724 5.57143 16.7143C5.57143 17.0562 5.84861 17.3333 6.19048 17.3333ZM2.80521 20.1721L3.38527 19.447C4.12054 20.0352 5.16518 20.0352 5.90045 19.447L6.4805 20.1721C5.40616 21.0316 3.87955 21.0316 2.80521 20.1721Z" fill="white"/>
</svg>
