<svg width="23" height="26" viewBox="0 0 23 26" fill="none" xmlns="http://www.w3.org/2000/svg">
<path fill-rule="evenodd" clip-rule="evenodd" d="M1.47504 8.42722C0.462245 8.42722 0.0711844 7.11336 0.919957 6.56282L10.7857 0.164145C11.1218 -0.0538429 11.555 -0.054778 11.892 0.161737L21.8526 6.56041C22.7058 7.10848 22.3163 8.42722 21.3013 8.42722H20.7265V22.7763H22.093C22.4704 22.7763 22.7763 23.0822 22.7763 23.4596C22.7763 23.8369 22.4704 24.1429 22.093 24.1429H20.8929V25.0714C20.8929 25.5843 20.4771 26 19.9643 26C19.4515 26 19.0357 25.5843 19.0357 25.0714V24.1429H3.71429V25.0714C3.71429 25.5843 3.29851 26 2.78571 26C2.27291 26 1.85714 25.5843 1.85714 25.0714V24.1429H0.68328C0.305934 24.1429 0 23.8369 0 23.4596C0 23.0822 0.305934 22.7763 0.68328 22.7763H2.04984V8.42722H1.47504ZM3.4164 8.42722V18.5714H6.83291V8.42722H3.4164ZM3.4164 22.7763V20.4286H4.64286V22.7763H3.4164ZM5.57143 22.7763V20.4286H6.83291V22.7763H5.57143ZM8.19947 8.42722V22.7763H14.5768V8.42722H8.19947ZM15.9434 20.4286V22.7763H17.1786V20.4286H15.9434ZM18.1071 20.4286V22.7763H19.3598V20.4286H18.1071ZM15.9434 18.5714H19.3598V8.42722H15.9434V18.5714ZM13.8188 4.87725C13.8188 6.20765 12.7368 7.28616 11.402 7.28616C10.0672 7.28616 8.98511 6.20765 8.98511 4.87725C8.98511 3.54685 10.0672 2.46834 11.402 2.46834C12.7368 2.46834 13.8188 3.54685 13.8188 4.87725Z" fill="white"/>
</svg>
