<svg width="26" height="26" viewBox="0 0 26 26" fill="none" xmlns="http://www.w3.org/2000/svg">
<path d="M14.1506 0.475784C13.8454 0.17114 13.4316 0 13 0C12.5684 0 12.1546 0.17114 11.8494 0.475784L0.456858 11.8509C0.160396 12.1574 -0.0036466 12.5679 6.15238e-05 12.994C0.00376965 13.4201 0.174932 13.8276 0.476684 14.1289C0.778435 14.4302 1.18663 14.6011 1.61336 14.6048C2.04008 14.6085 2.45119 14.4447 2.75814 14.1487L3.235 13.6726V24.375C3.235 24.806 3.40647 25.2193 3.71168 25.524C4.0169 25.8288 4.43086 26 4.8625 26H8.1175C8.54914 26 8.9631 25.8288 9.26832 25.524C9.57353 25.2193 9.745 24.806 9.745 24.375V21.1249C9.745 20.694 9.91647 20.2806 10.2217 19.9759C10.5269 19.6711 10.9409 19.4999 11.3725 19.4999H14.6275C15.0591 19.4999 15.4731 19.6711 15.7783 19.9759C16.0835 20.2806 16.255 20.694 16.255 21.1249V24.375C16.255 24.806 16.4265 25.2193 16.7317 25.524C17.0369 25.8288 17.4509 26 17.8825 26H21.1375C21.5691 26 21.9831 25.8288 22.2883 25.524C22.5935 25.2193 22.765 24.806 22.765 24.375V13.6726L23.2419 14.1487C23.5488 14.4447 23.9599 14.6085 24.3866 14.6048C24.8134 14.6011 25.2216 14.4302 25.5233 14.1289C25.8251 13.8276 25.9962 13.4201 25.9999 12.994C26.0036 12.5679 25.8396 12.1574 25.5431 11.8509L14.1506 0.475784Z" fill="white"/>
</svg>
