<svg width="26" height="24" viewBox="0 0 26 24" fill="none" xmlns="http://www.w3.org/2000/svg">
<path fill-rule="evenodd" clip-rule="evenodd" d="M23.8028 8.78873C23.8028 6.45782 22.6647 4.22237 20.6387 2.57416C18.6128 0.925953 15.8651 0 13 0C10.1349 0 7.3872 0.925953 5.36127 2.57416C3.33534 4.22237 2.19718 6.45781 2.19718 8.78873V20.507C1.79268 20.507 1.46479 20.8349 1.46479 21.2394V21.9718H0.732394C0.327888 21.9718 0 22.2997 0 22.7042C0 23.1087 0.327888 23.4366 0.732394 23.4366H25.2676C25.6721 23.4366 26 23.1087 26 22.7042C26 22.2997 25.6721 21.9718 25.2676 21.9718H24.5352V21.2394C24.5352 20.8349 24.2073 20.507 23.8028 20.507V8.78873ZM6.59155 20.507H3.29577V8.78873H6.59155V20.507ZM7.69014 8.78873V20.507H18.3099V8.78873H18.207C18.207 7.66522 17.6584 6.58773 16.6819 5.79328C15.7054 4.99884 14.381 4.55253 13 4.55253C11.619 4.55253 10.2946 4.99884 9.31809 5.79328C8.34158 6.58773 7.793 7.66522 7.793 8.78873H7.69014ZM22.7042 20.507H19.4084V8.78873H22.7042V20.507Z" fill="white"/>
</svg>
