<svg width="25" height="26" viewBox="0 0 25 26" fill="none" xmlns="http://www.w3.org/2000/svg">
<path d="M12.486 0.116995C12.9612 0.372867 13.139 0.96551 12.8831 1.4407L11.9451 3.18279C11.8522 3.35533 11.8557 3.56377 11.9545 3.73303L12.8668 5.29705C13.1388 5.76323 12.9813 6.3616 12.5151 6.63354C12.0489 6.90548 11.4506 6.74801 11.1786 6.28183L10.2663 4.71781C9.82456 3.96058 9.80865 3.02806 10.2243 2.2562L11.1623 0.514106C11.4182 0.0389159 12.0108 -0.138877 12.486 0.116995Z" fill="white"/>
<path d="M6.3266 0.309476C6.80179 0.565348 6.97958 1.15799 6.72371 1.63318L6.41539 2.20578C5.93131 3.10478 5.94985 4.19088 6.46432 5.07284L6.7074 5.48953C6.97933 5.95572 6.82187 6.55408 6.35569 6.82602C5.88951 7.09796 5.29114 6.9405 5.0192 6.47431L4.77613 6.05762C3.91867 4.58769 3.88777 2.77752 4.69457 1.27918L5.00289 0.706588C5.25876 0.231397 5.8514 0.0536045 6.3266 0.309476Z" fill="white"/>
<path d="M19.0425 1.62322C19.2984 1.14803 19.1206 0.555386 18.6454 0.299514C18.1702 0.0436421 17.5776 0.221435 17.3217 0.696626L16.3837 2.43871C15.9681 3.21058 15.984 4.1431 16.4257 4.90033L17.338 6.46435C17.61 6.93053 18.2083 7.088 18.6745 6.81606C19.1407 6.54412 19.2982 5.94575 19.0262 5.47957L18.1139 3.91555C18.0152 3.74629 18.0116 3.53784 18.1045 3.36531L19.0425 1.62322Z" fill="white"/>
<path d="M22.6091 7.13681V7.13996H22.7424C23.4866 7.13996 24.0898 7.7432 24.0898 8.48733C24.0898 9.23146 23.4866 9.8347 22.7424 9.8347H22.6091V14.5696C22.6091 17.2681 20.4216 19.4556 17.7231 19.4556H6.32225C3.62374 19.4556 1.43618 17.2681 1.43618 14.5696V9.83155H1.34737C0.60324 9.83155 0 9.22831 0 8.48418C0 7.74005 0.603238 7.13681 1.34737 7.13681L22.6091 7.13681Z" fill="white"/>
<path d="M13.0318 24.059C12.8153 24.3157 12.5215 24.4599 12.2152 24.4599C11.9089 24.4599 11.6152 24.3157 11.3986 24.059C11.182 23.8023 11.0603 23.4542 11.0603 23.0912C11.0603 22.7281 11.182 22.38 11.3986 22.1233C11.3986 22.1233 11.4934 22.4068 11.7821 22.5779C11.7821 22.2357 11.8543 21.7224 12.2132 21.3802C12.3669 21.5612 12.5238 21.6836 12.6708 21.7985C12.8019 21.9008 12.9252 21.997 13.0317 22.1233C13.1391 22.2502 13.2243 22.4011 13.2824 22.5672C13.3405 22.7333 13.3703 22.9114 13.3701 23.0912C13.3703 23.2709 13.3405 23.449 13.2825 23.6151C13.2244 23.7812 13.1392 23.9321 13.0318 24.059Z" fill="white"/>
<path d="M6.87242 24.0592C6.65583 24.3159 6.36208 24.4602 6.05578 24.4602C5.74948 24.4602 5.45573 24.3159 5.23914 24.0592C5.02255 23.8026 4.90088 23.4544 4.90088 23.0914C4.90088 22.7284 5.02255 22.3802 5.23914 22.1235C5.23914 22.1235 5.33398 22.407 5.6227 22.5781C5.6227 22.2359 5.69488 21.7226 6.05376 21.3804C6.20752 21.5614 6.36434 21.6839 6.51142 21.7987C6.64246 21.901 6.76576 21.9973 6.87228 22.1235C6.9797 22.2505 7.0649 22.4013 7.12297 22.5674C7.18104 22.7335 7.21084 22.9116 7.21065 23.0914C7.21086 23.2712 7.18108 23.4492 7.12303 23.6153C7.06499 23.7814 6.97982 23.9323 6.87242 24.0592Z" fill="white"/>
<path d="M18.3746 24.4599C18.6809 24.4599 18.9747 24.3157 19.1913 24.059C19.2987 23.9321 19.3838 23.7812 19.4419 23.6151C19.4999 23.449 19.5297 23.2709 19.5295 23.0912C19.5297 22.9114 19.4999 22.7333 19.4418 22.5672C19.3837 22.4011 19.2985 22.2502 19.1911 22.1233C19.0846 21.997 18.9613 21.9008 18.8303 21.7985C18.6832 21.6836 18.5263 21.5612 18.3726 21.3802C18.0137 21.7224 17.9415 22.2357 17.9415 22.5779C17.6528 22.4068 17.558 22.1233 17.558 22.1233C17.3414 22.38 17.2197 22.7281 17.2197 23.0912C17.2197 23.4542 17.3414 23.8023 17.558 24.059C17.7746 24.3157 18.0683 24.4599 18.3746 24.4599Z" fill="white"/>
<path d="M2.01365 24.8451C1.69474 24.8451 1.43621 25.1036 1.43621 25.4226C1.43621 25.7415 1.69474 26 2.01365 26H22.0317C22.3506 26 22.6092 25.7415 22.6092 25.4226C22.6092 25.1036 22.3506 24.8451 22.0317 24.8451H2.01365Z" fill="white"/>
</svg>
