<svg width="26" height="23" viewBox="0 0 26 23" fill="none" xmlns="http://www.w3.org/2000/svg">
<path d="M20.9845 13.9591H21.4247C21.6221 13.9591 21.7821 13.7991 21.7821 13.6017C21.7821 13.4043 21.6221 13.2442 21.4247 13.2442H20.6703C20.6607 13.2438 20.6512 13.2438 20.6418 13.2442H19.7532V12.9929C19.7532 12.7955 19.5932 12.6355 19.3958 12.6355C19.1984 12.6355 19.0384 12.7955 19.0384 12.9929V13.2442H17.3669C17.1695 13.2442 17.0095 13.4042 17.0095 13.6017C17.0095 13.7991 17.1694 13.9591 17.3669 13.9591H20.2647C20.1339 15.0262 19.7873 15.8274 19.2054 16.3867C18.9541 16.1355 18.8088 15.7978 18.7476 15.3561C18.7206 15.1605 18.5399 15.0237 18.3446 15.0511C18.149 15.0781 18.0124 15.2586 18.0395 15.4541C18.1234 16.0601 18.3395 16.4994 18.6284 16.8192C18.2525 17.0371 17.8112 17.1913 17.3019 17.2854C17.1078 17.3212 16.9795 17.5077 17.0154 17.7018C17.0472 17.874 17.1974 17.9944 17.3665 17.9944C17.388 17.9944 17.4098 17.9924 17.4318 17.9884C18.1289 17.8597 18.7293 17.6235 19.2275 17.2831C19.7012 17.5376 20.2397 17.6318 20.7033 17.6771C20.7151 17.6782 20.7268 17.6788 20.7385 17.6788C20.9202 17.6788 21.0758 17.5407 21.0939 17.3562C21.113 17.1597 20.9693 16.9848 20.7729 16.9656C20.4025 16.9294 20.09 16.8656 19.8293 16.7692C19.916 16.677 19.9979 16.5801 20.075 16.4786C20.57 15.8272 20.8688 15.0005 20.9845 13.9591Z" fill="white"/>
<path d="M10.5826 7.65728H7.54019L9.06836 3.64494L10.5826 7.65728Z" fill="white"/>
<path fill-rule="evenodd" clip-rule="evenodd" d="M0 16.1231C0 16.5496 0.5103 16.7693 0.820082 16.476L4.41552 13.0723C4.50578 12.9869 4.62534 12.9393 4.74962 12.9393H13.1215V21.4249C13.1215 22.2908 14.1684 22.7245 14.7807 22.1122L16.7854 20.1075H23.2815C24.0025 20.1075 24.694 19.8211 25.2038 19.3113C25.7136 18.8015 26 18.11 26 17.389V12.9241C26 12.2031 25.7136 11.5116 25.2038 11.0018C24.694 10.492 24.0025 10.2056 23.2815 10.2056H18.1831C18.2103 10.0408 18.2243 9.87332 18.2243 9.70444V3.23481C18.2243 2.37689 17.8643 1.5541 17.2235 0.947455C16.5826 0.34081 15.7135 0 14.8072 0H3.41706C2.5108 0 1.64165 0.34081 1.00083 0.947455C0.36001 1.5541 0 2.37689 0 3.23481V16.1231ZM14.0935 12.9393H14.8072C15.7135 12.9393 16.5826 12.5984 17.2235 11.9918C17.4781 11.7507 17.6884 11.4755 17.8494 11.1776H23.2815C23.7447 11.1776 24.189 11.3616 24.5165 11.6891C24.844 12.0166 25.028 12.4609 25.028 12.9241V17.389C25.028 17.8522 24.844 18.2964 24.5165 18.624C24.189 18.9515 23.7447 19.1355 23.2815 19.1355H16.7854C16.5276 19.1355 16.2804 19.2379 16.0981 19.4202L14.0935 21.4249V12.9393ZM11.6174 10.3995C11.7072 10.6374 11.9332 10.7839 12.1732 10.7839C12.2429 10.7839 12.3139 10.7715 12.3828 10.7455C12.6897 10.6297 12.8447 10.2869 12.7288 9.97993L9.7913 2.19599C9.7893 2.19061 9.78715 2.18515 9.78492 2.17977C9.66521 1.88884 9.38474 1.70093 9.07013 1.70093H9.06928C8.75429 1.70124 8.47374 1.88984 8.35457 2.1813L8.34934 2.19468L5.38486 9.97832C5.26807 10.2849 5.42199 10.6281 5.72861 10.7448C6.03476 10.8618 6.37835 10.7078 6.49514 10.4012L7.08772 8.84529H11.0309L11.6174 10.3995Z" fill="white"/>
</svg>
