<svg width="26" height="26" viewBox="0 0 26 26" fill="none" xmlns="http://www.w3.org/2000/svg">
<path fill-rule="evenodd" clip-rule="evenodd" d="M7 2.88889H5.5C4.30653 2.88889 3.16193 3.34544 2.31802 4.15809C1.47411 4.97075 1 6.07295 1 7.22222V20.2222C1 21.3715 1.47411 22.4737 2.31802 23.2864C3.16193 24.099 4.30653 24.5556 5.5 24.5556V26H20.5V24.5556C21.6935 24.5556 22.8381 24.099 23.682 23.2864C24.5259 22.4737 25 21.3715 25 20.2222V7.22222C25 6.07295 24.5259 4.97075 23.682 4.15809C22.8381 3.34544 21.6935 2.88889 20.5 2.88889H19V0H7V2.88889ZM9.25 10.1111C8.42157 10.1111 7.75 10.7578 7.75 11.5556C7.75 12.3533 8.42157 13 9.25 13H9.265C10.0934 13 10.765 12.3533 10.765 11.5556C10.765 10.7578 10.0934 10.1111 9.265 10.1111H9.25ZM15.25 11.5556C15.25 10.7578 15.9216 10.1111 16.75 10.1111H16.765C17.5934 10.1111 18.265 10.7578 18.265 11.5556C18.265 12.3533 17.5934 13 16.765 13H16.75C15.9216 13 15.25 12.3533 15.25 11.5556ZM10.3214 16.3224C9.74165 15.7526 8.79195 15.7433 8.20022 16.3016C7.60849 16.8599 7.59879 17.7744 8.17857 18.3442C8.80705 18.9619 9.55721 19.4526 10.3851 19.7876C11.213 20.1226 12.102 20.2952 13 20.2952C13.898 20.2952 14.787 20.1226 15.6149 19.7876C16.4428 19.4526 17.1929 18.9619 17.8214 18.3442C18.4012 17.7744 18.3915 16.8599 17.7998 16.3016C17.208 15.7433 16.2584 15.7526 15.6786 16.3224C15.3294 16.6656 14.9127 16.9382 14.4527 17.1243C13.9928 17.3104 13.4989 17.4063 13 17.4063C12.5011 17.4063 12.0072 17.3104 11.5473 17.1243C11.0873 16.9382 10.6706 16.6656 10.3214 16.3224Z" fill="white"/>
</svg>
