<svg width="26" height="16" viewBox="0 0 26 16" fill="none" xmlns="http://www.w3.org/2000/svg">
<path fill-rule="evenodd" clip-rule="evenodd" d="M21.4989 0C21.2086 0 20.9406 0.155552 20.7965 0.407605L19.4097 2.8345C19.1016 3.3738 19.491 4.04482 20.1121 4.04482H21.592L21.9965 4.85378H22.2465V14.9658H23.0555V4.85378H23.3054L23.7099 4.04482H25.1898C25.811 4.04482 26.2004 3.3738 25.8922 2.8345L24.5054 0.407605C24.3614 0.155553 24.0933 0 23.803 0H21.4989ZM20.1121 3.23586L21.4989 0.808964L23.803 0.808964L25.1898 3.23586L20.1121 3.23586Z" fill="white"/>
<path d="M3.65254 10.5833H10.2466V6.03379C10.2466 3.97569 3.19241 3.86728 3.19241 6.03379V8.26195C2.51788 7.86398 1.28198 8.07212 0.738792 9.04992C-0.483608 11.2504 0.0231538 12.4748 0.738792 13.0371V14.4172C0.738792 15.2642 1.42537 15.9507 2.2723 15.9507L18.8343 15.9507C19.6812 15.9507 20.3678 15.2642 20.3678 14.4172V13.0371C21.4924 12.3214 20.9812 9.96994 20.3678 9.04992C19.7319 8.09612 18.5456 7.73379 17.7607 8.02948V6.03379C17.7607 3.97569 10.7066 3.86728 10.7066 6.03379V10.5833H16.9941V11.0435H3.65254V10.5833Z" fill="white"/>
<path d="M21.0331 15.3299C21.0331 14.9948 21.3047 14.7232 21.6398 14.7232H23.6622C23.9973 14.7232 24.2689 14.9948 24.2689 15.3299C24.2689 15.665 23.9973 15.9366 23.6622 15.9366H21.6398C21.3047 15.9366 21.0331 15.665 21.0331 15.3299Z" fill="white"/>
<path d="M21.4989 0.808964L20.1121 3.23586L25.1898 3.23586L23.803 0.808964L21.4989 0.808964Z" fill="white"/>
</svg>
