<svg width="19" height="23" viewBox="0 0 19 23" fill="none" xmlns="http://www.w3.org/2000/svg">
<path fill-rule="evenodd" clip-rule="evenodd" d="M0 1C0 0.447715 0.447715 0 1 0H17.4275C17.9798 0 18.4275 0.447715 18.4275 1V3.56305H0V1ZM0 4.56305V21.9905C0 22.5428 0.447715 22.9905 1 22.9905H17.4275C17.9798 22.9905 18.4275 22.5428 18.4275 21.9905V4.56305H0ZM9.21376 20.0069C12.4608 20.0069 15.093 17.3747 15.093 14.1276C15.093 10.8806 12.4608 8.24839 9.21376 8.24839C5.96675 8.24839 3.33452 10.8806 3.33452 14.1276C3.33452 17.3747 5.96675 20.0069 9.21376 20.0069ZM9.21379 17.9009C11.2977 17.9009 12.987 16.2116 12.987 14.1277C12.987 12.0438 11.2977 10.3544 9.21379 10.3544C7.12989 10.3544 5.44055 12.0438 5.44055 14.1277C5.44055 16.2116 7.12989 17.9009 9.21379 17.9009ZM16.146 2.80799C16.6306 2.80799 17.0235 2.41512 17.0235 1.93049C17.0235 1.44586 16.6306 1.05299 16.146 1.05299C15.6614 1.05299 15.2685 1.44586 15.2685 1.93049C15.2685 2.41512 15.6614 2.80799 16.146 2.80799ZM1.40395 1.93057C1.40395 1.6398 1.63967 1.40408 1.93045 1.40408H3.50994C3.80072 1.40408 4.03644 1.6398 4.03644 1.93057C4.03644 2.22135 3.80072 2.45707 3.50994 2.45707H1.93045C1.63967 2.45707 1.40395 2.22135 1.40395 1.93057Z" fill="white"/>
</svg>
