<svg width="25" height="26" viewBox="0 0 25 26" fill="none" xmlns="http://www.w3.org/2000/svg">
<path d="M1.52941 0C1.12379 0 0.734775 0.161134 0.447954 0.447954C0.161134 0.734775 0 1.12379 0 1.52941C0 1.93504 0.161134 2.32405 0.447954 2.61087C0.734775 2.89769 1.12379 3.05882 1.52941 3.05882H3.39529L3.86176 4.92776C3.8664 4.94928 3.8715 4.9707 3.87706 4.992L5.954 13.2967L4.58824 14.6609C2.66118 16.588 4.02541 19.8824 6.75082 19.8824H19.8824C20.288 19.8824 20.677 19.7212 20.9638 19.4344C21.2506 19.1476 21.4118 18.7586 21.4118 18.3529C21.4118 17.9473 21.2506 17.5583 20.9638 17.2715C20.677 16.9847 20.288 16.8235 19.8824 16.8235H6.75082L8.28024 15.2941H18.3529C18.6369 15.294 18.9152 15.2148 19.1567 15.0654C19.3982 14.916 19.5933 14.7024 19.7202 14.4484L24.3085 5.27188C24.425 5.03877 24.4799 4.77976 24.4682 4.51942C24.4565 4.25909 24.3784 4.00607 24.2415 3.78437C24.1045 3.56267 23.9132 3.37965 23.6856 3.25267C23.458 3.12569 23.2018 3.05896 22.9412 3.05882H6.54588L6.07176 1.15776C5.98891 0.827035 5.79793 0.533472 5.52914 0.323708C5.26036 0.113944 4.92918 8.96302e-06 4.58824 0H1.52941ZM21.4118 23.7059C21.4118 24.3143 21.1701 24.8978 20.7398 25.3281C20.3096 25.7583 19.7261 26 19.1176 26C18.5092 26 17.9257 25.7583 17.4955 25.3281C17.0652 24.8978 16.8235 24.3143 16.8235 23.7059C16.8235 23.0974 17.0652 22.5139 17.4955 22.0837C17.9257 21.6535 18.5092 21.4118 19.1176 21.4118C19.7261 21.4118 20.3096 21.6535 20.7398 22.0837C21.1701 22.5139 21.4118 23.0974 21.4118 23.7059ZM6.88235 26C7.49079 26 8.07431 25.7583 8.50454 25.3281C8.93477 24.8978 9.17647 24.3143 9.17647 23.7059C9.17647 23.0974 8.93477 22.5139 8.50454 22.0837C8.07431 21.6535 7.49079 21.4118 6.88235 21.4118C6.27392 21.4118 5.6904 21.6535 5.26017 22.0837C4.82994 22.5139 4.58824 23.0974 4.58824 23.7059C4.58824 24.3143 4.82994 24.8978 5.26017 25.3281C5.6904 25.7583 6.27392 26 6.88235 26Z" fill="white"/>
</svg>
