<svg width="26" height="26" viewBox="0 0 26 26" fill="none" xmlns="http://www.w3.org/2000/svg">
<path d="M13.0617 11.5142C25.244 16.7817 21.3215 26 17.454 26H12.6254H7.79698C5.50806 26 0.87948 16.7817 13.0617 11.5142Z" fill="white"/>
<path d="M18 7.19342C17.0363 7.54561 15.9799 7.63264 14.9621 7.44369C13.9444 7.25474 13.0102 6.79814 12.2757 6.13066C11.5412 5.46317 11.0387 4.61424 10.8308 3.68938C10.6229 2.76451 10.7186 1.80452 11.1062 0.928711C9.9649 1.34646 9.01906 2.11198 8.43081 3.09403C7.84257 4.07607 7.64855 5.21349 7.88203 6.31129C8.11551 7.40908 8.76194 8.39889 9.7105 9.11102C10.6591 9.82316 11.8507 10.2133 13.0811 10.2145C14.1391 10.2145 15.173 9.92682 16.0496 9.38842C16.9262 8.85003 17.6055 8.08557 18 7.19342Z" fill="white"/>
<path d="M15.2143 0L15.8398 1.92489H17.8637L16.2263 3.11454L16.8517 5.03943L15.2143 3.84978L13.5769 5.03943L14.2023 3.11454L12.5649 1.92489H14.5889L15.2143 0Z" fill="white"/>
</svg>
