<svg width="26" height="26" viewBox="0 0 26 26" fill="none" xmlns="http://www.w3.org/2000/svg">
<g clip-path="url(#clip0)">
<path fill-rule="evenodd" clip-rule="evenodd" d="M24.2846 0.667289C24.7538 0.200994 25.5122 0.203332 25.9785 0.672512C26.4448 1.14169 26.4424 1.90004 25.9732 2.36634L22.7876 5.53241C23.1831 5.66697 23.5466 5.89107 23.8476 6.19206C24.3639 6.70835 24.6539 7.40858 24.6539 8.13871V19.1506C24.6539 19.8808 24.3639 20.581 23.8476 21.0973C23.3313 21.6136 22.6311 21.9036 21.901 21.9036H6.31512L2.36868 25.8258C1.8995 26.2921 1.14115 26.2897 0.674857 25.8206C0.208562 25.3514 0.210901 24.593 0.68008 24.1267L3.58737 21.2373C3.53551 21.1927 3.48516 21.146 3.43645 21.0973C2.92017 20.581 2.63012 19.8808 2.63012 19.1506V8.13871C2.63012 7.40858 2.92017 6.70835 3.43645 6.19206C3.95274 5.67578 4.65297 5.38574 5.3831 5.38574H7.56621C7.93125 5.38566 8.28131 5.24058 8.53939 4.98242L10.0824 3.43938C10.5986 2.92306 11.2987 2.63291 12.0288 2.63276H15.2553C15.9854 2.63291 16.6855 2.92306 17.2016 3.43938L18.7447 4.98242C18.9623 5.20013 19.2454 5.33742 19.5477 5.37514L24.2846 0.667289ZM15.1104 9.78509C14.6417 9.60678 14.1442 9.5152 13.642 9.5152C12.5468 9.5152 11.4965 9.95027 10.7221 10.7247C9.94763 11.4991 9.51257 12.5495 9.51257 13.6447C9.51257 14.1427 9.60254 14.6315 9.77348 15.0892L15.1104 9.78509ZM11.2431 17.0059C11.9387 17.5023 12.7763 17.7741 13.642 17.7741C14.1843 17.7741 14.7213 17.6673 15.2223 17.4598C15.7233 17.2523 16.1785 16.9481 16.562 16.5646C16.9455 16.1812 17.2496 15.726 17.4572 15.2249C17.6647 14.7239 17.7715 14.187 17.7715 13.6447C17.7715 13.1024 17.6647 12.5654 17.4572 12.0644C17.3404 11.7824 17.1929 11.5149 17.018 11.2665L11.2431 17.0059Z" fill="#A6A6A6"/>
</g>
<defs>
<clipPath id="clip0">
<rect width="26" height="26" fill="white"/>
</clipPath>
</defs>
</svg>
