<svg width="26" height="26" viewBox="0 0 26 26" fill="none" xmlns="http://www.w3.org/2000/svg">
<path fill-rule="evenodd" clip-rule="evenodd" d="M5 0C2.23858 0 0 2.23858 0 5V21C0 23.7614 2.23858 26 5 26H21C23.7614 26 26 23.7614 26 21V5C26 2.23858 23.7614 0 21 0H5ZM7.3125 4.875V20.8H10.0425V14.7713H13.9328C15.6921 14.7713 17.0192 14.2708 17.914 13.2698C18.824 12.2688 19.279 11.1161 19.279 9.81175C19.279 8.43158 18.8468 7.26375 17.9823 6.30825C17.1178 5.35275 15.7679 4.875 13.9328 4.875H7.3125ZM15.8665 11.4725C15.4722 11.9427 14.8731 12.1778 14.0693 12.1778H10.0425V7.4685H14.0693C14.9186 7.4685 15.5253 7.71117 15.8893 8.1965C16.2684 8.66667 16.458 9.20508 16.458 9.81175C16.458 10.4488 16.2608 11.0023 15.8665 11.4725Z" fill="white"/>
</svg>
