<svg width="25" height="26" viewBox="0 0 25 26" fill="none" xmlns="http://www.w3.org/2000/svg">
<path fill-rule="evenodd" clip-rule="evenodd" d="M3.49551 2.26757C3.66683 2.09625 3.89919 2 4.14148 2C4.38376 2 4.61612 2.09625 4.78744 2.26757L5.01959 2.49972C5.33955 2.81968 5.5193 3.25364 5.5193 3.70614V19.3724L4.22949 18.525C3.56286 18.087 2.69973 18.087 2.0331 18.525L1.18115 19.0847C1.02064 19.1902 0.876154 19.3182 0.752147 19.4649L4.94123e-05 20.3543L1.52725 21.6457L2.27935 20.7563L3.1313 20.1965L5.07722 21.475C5.74385 21.913 6.60698 21.913 7.27361 21.475L9.21953 20.1965L11.1655 21.475C11.8321 21.913 12.6952 21.913 13.3618 21.475L15.3078 20.1965L17.2537 21.475C17.9203 21.913 18.7835 21.913 19.4501 21.475L21.396 20.1965L22.248 20.7563L23 21.6457L24.5272 20.3543L23.7751 19.4649C23.6511 19.3182 23.5067 19.1902 23.3461 19.0847L22.4942 18.525C21.8276 18.087 20.9644 18.087 20.2978 18.525L20.201 18.5886V3.70614C20.201 2.72321 19.8105 1.78054 19.1155 1.0855L18.8833 0.853352C18.3369 0.30696 17.5959 0 16.8231 0C16.0504 0 15.3094 0.30696 14.763 0.853352L14.5308 1.0855C13.8358 1.78054 13.4453 2.72321 13.4453 3.70614V7.34087H15.4453V3.70614C15.4453 3.25364 15.6251 2.81968 15.945 2.49972L16.1772 2.26757C16.3485 2.09625 16.5809 2 16.8231 2C17.0654 2 17.2978 2.09625 17.4691 2.26757L17.7013 2.49972C18.0212 2.81968 18.201 3.25364 18.201 3.70614V10.0964H7.5193V3.70614C7.5193 2.72321 7.12884 1.78054 6.4338 1.0855L6.20165 0.853352C5.65526 0.30696 4.91419 0 4.14148 0C3.36876 0 2.62769 0.30696 2.0813 0.853352L1.84915 1.0855C1.15412 1.78054 0.763649 2.72321 0.763649 3.70614V7.34087H2.76365V3.70614C2.76365 3.25364 2.9434 2.81968 3.26336 2.49972L3.49551 2.26757ZM6.17541 19.8035L6.03666 19.7123H6.31416L6.17541 19.8035ZM8.12134 18.525L7.5193 18.9205V16.2671H18.201V19.6704H18.5544L18.3519 19.8035L16.406 18.525C15.7393 18.087 14.8762 18.087 14.2096 18.525L12.2636 19.8035L10.3177 18.525C9.6511 18.087 8.78796 18.087 8.12134 18.525ZM18.201 14.2671V12.0964H7.5193V14.2671H18.201Z" fill="white"/>
<path d="M16.4059 22.525C15.7393 22.087 14.8761 22.087 14.2095 22.525L12.2636 23.8035L10.3177 22.525C9.65105 22.087 8.78791 22.087 8.12129 22.525L6.17536 23.8035L4.22944 22.525C3.56281 22.087 2.69968 22.087 2.03305 22.525L1.1811 23.0847C1.02059 23.1902 0.876105 23.3182 0.752097 23.4649L0 24.3543L1.5272 25.6457L2.2793 24.7563L3.13125 24.1965L5.07717 25.475C5.7438 25.913 6.60693 25.913 7.27356 25.475L9.21948 24.1965L11.1654 25.475C11.832 25.913 12.6952 25.913 13.3618 25.475L15.3077 24.1965L17.2536 25.475C17.9203 25.913 18.7834 25.913 19.45 25.475L21.396 24.1965L22.2479 24.7563L23 25.6457L24.5272 24.3543L23.7751 23.4649C23.6511 23.3182 23.5066 23.1902 23.3461 23.0847L22.4941 22.525C21.8275 22.087 20.9644 22.087 20.2978 22.525L18.3518 23.8035L16.4059 22.525Z" fill="white"/>
</svg>
