<svg width="26" height="26" viewBox="0 0 26 26" fill="none" xmlns="http://www.w3.org/2000/svg">
<g clip-path="url(#clip0)">
<path d="M25.2923 19.0814L21.664 15.453C20.3681 14.1572 18.1652 14.6755 17.6468 16.3601C17.2581 17.5264 15.9622 18.1743 14.796 17.9151C12.2043 17.2672 8.70546 13.898 8.05754 11.1767C7.66878 10.0104 8.44629 8.71453 9.61256 8.32583C11.2972 7.80749 11.8155 5.60455 10.5197 4.3087L6.89128 0.680321C5.8546 -0.226774 4.29958 -0.226774 3.39248 0.680321L0.930369 3.14243C-1.53174 5.73413 1.18954 12.6021 7.28003 18.6926C13.3705 24.7831 20.2385 27.634 22.8302 25.0423L25.2923 22.5802C26.1995 21.5435 26.1995 19.9885 25.2923 19.0814Z" fill="white"/>
</g>
<defs>
<clipPath id="clip0">
<rect width="26" height="26" fill="white"/>
</clipPath>
</defs>
</svg>
