<svg width="26" height="22" viewBox="0 0 26 22" fill="none" xmlns="http://www.w3.org/2000/svg">
<path d="M17.8204 7.25664C18.2962 7.25664 18.5342 7.45887 18.5342 7.86334C18.5342 8.28367 18.2962 8.49383 17.8204 8.49383H13.2999C13.0937 8.49383 12.9311 8.43435 12.8121 8.31539C12.6932 8.1885 12.6337 8.03385 12.6337 7.85144C12.6337 7.61352 12.7249 7.39939 12.9073 7.20905L15.6196 4.2945C15.9527 3.92969 16.1946 3.59659 16.3453 3.29523C16.5039 2.98593 16.5832 2.68059 16.5832 2.37923C16.5832 2.00648 16.4761 1.72097 16.262 1.5227C16.0479 1.32444 15.7425 1.2253 15.346 1.2253C15.0208 1.2253 14.7036 1.28875 14.3943 1.41564C14.0929 1.5346 13.7876 1.70115 13.4783 1.91528C13.399 1.97079 13.3197 2.01838 13.2404 2.05803C13.1611 2.08975 13.0818 2.10561 13.0025 2.10561C12.8676 2.10561 12.7487 2.04217 12.6456 1.91528C12.5504 1.78838 12.5028 1.6377 12.5028 1.46322C12.5028 1.34426 12.5227 1.24116 12.5623 1.15392C12.6099 1.06669 12.6813 0.983413 12.7764 0.904106C13.1254 0.626529 13.5338 0.408434 14.0017 0.249819C14.4697 0.083273 14.9376 0 15.4055 0C16.2223 0 16.8727 0.206199 17.3564 0.618598C17.8482 1.031 18.094 1.58615 18.094 2.28406C18.094 2.76783 17.9909 3.22385 17.7847 3.65211C17.5785 4.07244 17.2296 4.54432 16.7378 5.06775L14.6798 7.25664H17.8204Z" fill="white"/>
<path d="M25.2862 5.66256C25.5242 5.66256 25.7026 5.71411 25.8216 5.8172C25.9405 5.9203 26 6.06702 26 6.25736C26 6.6539 25.7621 6.85217 25.2862 6.85217H24.6795V7.79196C24.6795 8.03782 24.6082 8.22815 24.4654 8.36298C24.3306 8.4978 24.1521 8.56521 23.9301 8.56521C23.708 8.56521 23.5256 8.4978 23.3829 8.36298C23.248 8.22815 23.1806 8.03782 23.1806 7.79196V6.85217H20.0638C19.8497 6.85217 19.6832 6.79269 19.5642 6.67373C19.4452 6.54683 19.3858 6.39218 19.3858 6.20978C19.3858 6.01944 19.4492 5.83703 19.5761 5.66256L23.252 0.380676C23.3313 0.269646 23.4304 0.186373 23.5494 0.130858C23.6684 0.0674117 23.7913 0.0356886 23.9182 0.0356886C24.1244 0.0356886 24.3028 0.1031 24.4535 0.237923C24.6042 0.372745 24.6795 0.563083 24.6795 0.808937V5.66256H25.2862ZM23.1806 5.66256V2.4625L20.9679 5.66256H23.1806Z" fill="white"/>
<path d="M17.3763 16.6329L14.8808 14.1427C13.9896 13.2534 12.4745 13.6091 12.118 14.7653C11.8506 15.5657 10.9594 16.0104 10.1573 15.8325C8.37482 15.3878 5.9685 13.0755 5.52288 11.2078C5.25551 10.4074 5.79025 9.51802 6.59236 9.25125C7.75096 8.8955 8.10745 7.38359 7.21622 6.49423L4.72077 4.00403C4.00779 3.38148 2.93831 3.38148 2.31445 4.00403L0.621106 5.69381C-1.07223 7.47253 0.799352 12.1861 4.98814 16.3661C9.17693 20.5461 13.9005 22.5027 15.6829 20.724L17.3763 19.0342C18.0002 18.3227 18.0002 17.2555 17.3763 16.6329Z" fill="white"/>
</svg>
