<svg width="26" height="26" viewBox="0 0 26 26" fill="none" xmlns="http://www.w3.org/2000/svg">
<path fill-rule="evenodd" clip-rule="evenodd" d="M4.875 8.49351e-08C5.30598 8.49351e-08 5.7193 0.171205 6.02405 0.475952C6.32879 0.780698 6.5 1.19402 6.5 1.625V3.25H8.125C8.55598 3.25 8.9693 3.42121 9.27405 3.72595C9.57879 4.0307 9.75 4.44402 9.75 4.875C9.75 5.30598 9.57879 5.7193 9.27405 6.02405C8.9693 6.32879 8.55598 6.5 8.125 6.5H6.5V8.125C6.5 8.55598 6.32879 8.9693 6.02405 9.27405C5.7193 9.57879 5.30598 9.75 4.875 9.75C4.44402 9.75 4.0307 9.57879 3.72595 9.27405C3.42121 8.9693 3.25 8.55598 3.25 8.125V6.5H1.625C1.19402 6.5 0.780698 6.32879 0.475951 6.02405C0.171205 5.7193 0 5.30598 0 4.875C0 4.44402 0.171205 4.0307 0.475951 3.72595C0.780698 3.42121 1.19402 3.25 1.625 3.25H3.25V1.625C3.25 1.19402 3.42121 0.780698 3.72595 0.475952C4.0307 0.171205 4.44402 8.49351e-08 4.875 8.49351e-08ZM4.875 16.25C5.30598 16.25 5.7193 16.4212 6.02405 16.726C6.32879 17.0307 6.5 17.444 6.5 17.875V19.5H8.125C8.55598 19.5 8.9693 19.6712 9.27405 19.976C9.57879 20.2807 9.75 20.694 9.75 21.125C9.75 21.556 9.57879 21.9693 9.27405 22.274C8.9693 22.5788 8.55598 22.75 8.125 22.75H6.5V24.375C6.5 24.806 6.32879 25.2193 6.02405 25.524C5.7193 25.8288 5.30598 26 4.875 26C4.44402 26 4.0307 25.8288 3.72595 25.524C3.42121 25.2193 3.25 24.806 3.25 24.375V22.75H1.625C1.19402 22.75 0.780698 22.5788 0.475951 22.274C0.171205 21.9693 0 21.556 0 21.125C0 20.694 0.171205 20.2807 0.475951 19.976C0.780698 19.6712 1.19402 19.5 1.625 19.5H3.25V17.875C3.25 17.444 3.42121 17.0307 3.72595 16.726C4.0307 16.4212 4.44402 16.25 4.875 16.25ZM16.25 8.49351e-08C16.6086 -0.000115823 16.9572 0.118402 17.2414 0.337085C17.5257 0.555768 17.7296 0.862331 17.8214 1.209L19.7372 8.45L25.1875 11.5927C25.4345 11.7354 25.6396 11.9405 25.7822 12.1875C25.9248 12.4346 25.9999 12.7148 25.9999 13C25.9999 13.2852 25.9248 13.5654 25.7822 13.8125C25.6396 14.0595 25.4345 14.2646 25.1875 14.4073L19.7372 17.5516L17.8197 24.791C17.7278 25.1373 17.5239 25.4436 17.2399 25.662C16.9558 25.8805 16.6075 25.9989 16.2492 25.9989C15.8909 25.9989 15.5426 25.8805 15.2585 25.662C14.9745 25.4436 14.7706 25.1373 14.6786 24.791L12.7628 17.55L7.3125 14.4073C7.06549 14.2646 6.86037 14.0595 6.71776 13.8125C6.57515 13.5654 6.50007 13.2852 6.50007 13C6.50007 12.7148 6.57515 12.4346 6.71776 12.1875C6.86037 11.9405 7.06549 11.7354 7.3125 11.5927L12.7628 8.44837L14.6803 1.209C14.772 0.8626 14.9756 0.556236 15.2595 0.33758C15.5434 0.118925 15.8917 0.000242626 16.25 8.49351e-08Z" fill="white"/>
</svg>
