<svg width="26" height="26" viewBox="0 0 26 26" fill="none" xmlns="http://www.w3.org/2000/svg">
<g clip-path="url(#clip0)">
<path d="M13.0807 0V8.3168L16.9193 10.5176M24.1617 6.39755L16.9591 10.5559L16.9725 14.9806M24.1615 19.1928L16.9589 15.0344L13.1337 17.2583M13.0809 25.5903V17.2735L9.24241 15.0727M2 19.1924L9.20256 15.034L9.18921 10.6094M2.00019 6.39744L9.20275 10.5558L13.0279 8.33196M10.5217 2.55902L13.0807 3.83852L15.6398 2.55902H10.5217ZM20.666 5.46088L20.8374 8.31681L23.225 9.89323L20.666 5.46088ZM23.2248 15.6971L20.8372 17.2736L20.6658 20.1295L23.2248 15.6971ZM15.6399 23.0312L13.0809 21.7517L10.5219 23.0312H15.6399ZM5.49568 20.1291L5.32426 17.2732L2.93666 15.6967L5.49568 20.1291ZM2.93686 9.89312L5.32445 8.3167L5.49587 5.46077L2.93686 9.89312Z" stroke="white" stroke-width="2.5" stroke-linecap="round" stroke-linejoin="round"/>
</g>
<defs>
<clipPath id="clip0">
<rect width="26" height="26" fill="white"/>
</clipPath>
</defs>
</svg>
