<svg width="26" height="26" viewBox="0 0 26 26" fill="none" xmlns="http://www.w3.org/2000/svg">
<path d="M19.6594 14.1235H5.53586C4.64949 14.1235 3.91711 13.4033 4.00758 12.5215C4.35169 9.16773 6.04193 5.45679 12.689 5.45679C19.2743 5.45679 20.862 9.30855 21.1886 12.5215C21.2783 13.4034 20.5457 14.1235 19.6594 14.1235Z" fill="white"/>
<path d="M21.6011 0.297814C11.8997 -1.42873 10.0396 4.76782 10.3507 8.19011H14.0421C13.4964 2.84295 17.7815 2.21821 20.985 2.70948C21.7766 2.83087 22.5483 2.25256 22.5483 1.45175C22.5483 0.88804 22.156 0.396584 21.6011 0.297814Z" fill="white"/>
<path d="M5.21491 17.0123C5.21491 16.3032 5.78976 15.7284 6.49886 15.7284C7.20797 15.7284 7.78281 16.3032 7.78281 17.0123V18.6173C7.78281 19.3264 7.20797 19.9012 6.49886 19.9012C5.78976 19.9012 5.21491 19.3264 5.21491 18.6173V17.0123Z" fill="white"/>
<path d="M16.4495 17.0123C16.4495 16.3032 17.0243 15.7284 17.7334 15.7284C18.4425 15.7284 19.0174 16.3032 19.0174 17.0123V18.6173C19.0174 19.3264 18.4425 19.9012 17.7334 19.9012C17.0243 19.9012 16.4495 19.3264 16.4495 18.6173V17.0123Z" fill="white"/>
<path d="M10.6717 17.0123C10.6717 16.3032 11.2465 15.7284 11.9557 15.7284C12.6648 15.7284 13.2396 16.3032 13.2396 17.0123V18.6173C13.2396 19.3264 12.6648 19.9012 11.9557 19.9012C11.2465 19.9012 10.6717 19.3264 10.6717 18.6173V17.0123Z" fill="white"/>
<path d="M7.78281 23.1111C7.78281 22.402 8.35766 21.8272 9.06676 21.8272C9.77587 21.8272 10.3507 22.402 10.3507 23.1111V24.716C10.3507 25.4252 9.77587 26 9.06676 26C8.35766 26 7.78281 25.4252 7.78281 24.716V23.1111Z" fill="white"/>
<path d="M13.7211 23.1111C13.7211 22.402 14.2959 21.8272 15.005 21.8272C15.7141 21.8272 16.289 22.402 16.289 23.1111V24.716C16.289 25.4252 15.7141 26 15.005 26C14.2959 26 13.7211 25.4252 13.7211 24.716V23.1111Z" fill="white"/>
</svg>
