<svg width="26" height="26" viewBox="0 0 26 26" fill="none" xmlns="http://www.w3.org/2000/svg">
<path d="M2.67106 11.6316L22.8553 11.6316C23.2332 11.6316 23.5414 11.9376 23.5255 12.3151C23.3656 16.1103 21.715 20.8684 12.6496 20.8684C3.62447 20.8684 2.14847 15.8814 2.00057 12.3155C1.98491 11.9379 2.29319 11.6316 2.67106 11.6316Z" fill="white"/>
<path d="M10.5395 4.90853V13.6986H13.2763V4.90853C13.2763 2.0243 16.8684 1.34009 16.8684 4.22432V4.41754H19.4342V4.22432C19.4342 -1.845 10.5395 -1.1608 10.5395 4.90853Z" fill="white"/>
<path d="M10.1974 21.2105C10.1974 20.2658 10.9632 19.5 11.9079 19.5H13.2763C14.221 19.5 14.9869 20.2658 14.9869 21.2105V24.2895C14.9869 25.2342 14.221 26 13.2763 26H11.9079C10.9632 26 10.1974 25.2342 10.1974 24.2895V21.2105Z" fill="white"/>
<path d="M8.48685 7.18421H11.2237V8.55263H8.48685V7.18421Z" fill="white"/>
<path d="M7.46054 7.35526C7.46054 6.88291 7.84345 6.5 8.3158 6.5C8.78815 6.5 9.17107 6.88291 9.17107 7.35526V8.38158C9.17107 8.85393 8.78815 9.23684 8.3158 9.23684C7.84345 9.23684 7.46054 8.85393 7.46054 8.38158V7.35526Z" fill="white"/>
</svg>
