<svg width="26" height="26" viewBox="0 0 26 26" fill="none" xmlns="http://www.w3.org/2000/svg">
<path d="M12.6663 13.5826H3.94629V7.95867C3.94629 5.28054 12.6663 5.41454 12.6663 7.95867V13.5826Z" fill="white"/>
<path d="M21.9549 13.5826H13.235V7.95867C13.235 5.28054 21.9549 5.41454 21.9549 7.95867V13.5826Z" fill="white"/>
<path d="M0.913257 11.6871C1.86108 9.98087 4.51509 10.1704 4.51509 11.687V14.1514H21.0072V11.687C21.1968 9.79131 23.9785 9.88862 25.1776 11.687C25.9359 12.8243 26.5678 15.7311 25.1776 16.6158V18.3218C25.1776 19.3688 24.3289 20.2175 23.282 20.2175L2.8089 20.2175C1.76197 20.2175 0.913257 19.3688 0.913257 18.3219V16.6158C0.0286216 15.9207 -0.597811 14.4072 0.913257 11.6871Z" fill="white"/>
</svg>
