<svg width="26" height="20" viewBox="0 0 26 20" fill="none" xmlns="http://www.w3.org/2000/svg">
<path fill-rule="evenodd" clip-rule="evenodd" d="M3.9 0C3.36842 0 2.8904 0.323636 2.69298 0.817192L0.103928 7.28982C0.0370289 7.44646 0 7.61891 0 7.8V15.6C0 16.318 0.58203 16.9 1.3 16.9H2.82192C3.3573 18.4147 4.80192 19.5 6.5 19.5C8.19808 19.5 9.6427 18.4147 10.1781 16.9H15.8219C16.3573 18.4147 17.8019 19.5 19.5 19.5C21.1981 19.5 22.6427 18.4147 23.1781 16.9H24.7C25.418 16.9 26 16.318 26 15.6V10.4C26 9.36565 25.5891 8.37367 24.8577 7.64228C24.1263 6.91089 23.1343 6.5 22.1 6.5H21.4248L16.6151 0.487896C16.3684 0.179517 15.9949 0 15.6 0H3.9ZM23.1781 14.3H23.4V10.4C23.4 10.0552 23.263 9.72456 23.0192 9.48076C22.7754 9.23696 22.4448 9.1 22.1 9.1H2.6V14.3H2.82192C3.3573 12.7852 4.80192 11.7 6.5 11.7C8.19808 11.7 9.6427 12.7852 10.1781 14.3H15.8219C16.3573 12.7852 17.8019 11.7 19.5 11.7C21.1981 11.7 22.6427 12.7852 23.1781 14.3ZM14.3 6.5H18.0952L14.9752 2.6H14.3V6.5ZM4.78014 2.6H11.7V6.5H3.22014L4.78014 2.6ZM7.8 15.6C7.8 16.318 7.21797 16.9 6.5 16.9C5.78203 16.9 5.2 16.318 5.2 15.6C5.2 14.882 5.78203 14.3 6.5 14.3C7.21797 14.3 7.8 14.882 7.8 15.6ZM19.5 16.9C20.218 16.9 20.8 16.318 20.8 15.6C20.8 14.882 20.218 14.3 19.5 14.3C18.782 14.3 18.2 14.882 18.2 15.6C18.2 16.318 18.782 16.9 19.5 16.9Z" fill="white"/>
<path d="M23.4 14.3H23.1781C22.6427 12.7852 21.1981 11.7 19.5 11.7C17.8019 11.7 16.3573 12.7852 15.8219 14.3H10.1781C9.6427 12.7852 8.19808 11.7 6.5 11.7C4.80192 11.7 3.3573 12.7852 2.82192 14.3H2.6V9.1H22.1C22.4448 9.1 22.7754 9.23696 23.0192 9.48076C23.263 9.72456 23.4 10.0552 23.4 10.4V14.3Z" fill="white"/>
</svg>
