<svg width="26" height="26" viewBox="0 0 26 26" fill="none" xmlns="http://www.w3.org/2000/svg">
<path fill-rule="evenodd" clip-rule="evenodd" d="M2.6 2C1.16406 2 0 3.16406 0 4.6V11.36C0 12.6183 0.893871 13.6678 2.08127 13.9082C2.08043 13.9254 2.08 13.9426 2.08 13.96V23.32C2.08 23.8944 2.54562 24.36 3.12 24.36H5.2C5.77438 24.36 6.24 23.8944 6.24 23.32V13.96H19.76V23.32C19.76 23.8944 20.2256 24.36 20.8 24.36H22.88C23.4544 24.36 23.92 23.8944 23.92 23.32V13.96C23.92 13.9426 23.9196 13.9254 23.9187 13.9082C25.1061 13.6678 26 12.6183 26 11.36V4.6C26 3.16406 24.8359 2 23.4 2H2.6ZM13 9.28C13.8616 9.28 14.56 8.58156 14.56 7.72C14.56 6.85844 13.8616 6.16 13 6.16C12.1384 6.16 11.44 6.85844 11.44 7.72C11.44 8.58156 12.1384 9.28 13 9.28Z" fill="white"/>
</svg>
