<svg width="26" height="26" viewBox="0 0 26 26" fill="none" xmlns="http://www.w3.org/2000/svg">
<path fill-rule="evenodd" clip-rule="evenodd" d="M2.88889 13H0L13 0L26 13H23.1111V23.1111C23.1111 23.8773 22.8067 24.6121 22.265 25.1539C21.7232 25.6956 20.9884 26 20.2222 26H5.77778C5.0116 26 4.2768 25.6956 3.73502 25.1539C3.19325 24.6121 2.88889 23.8773 2.88889 23.1111V13ZM10.1111 14C10.1111 13.4477 10.5588 13 11.1111 13H14.8889C15.4412 13 15.8889 13.4477 15.8889 14V17.7778C15.8889 18.3301 15.4412 18.7778 14.8889 18.7778H11.1111C10.5588 18.7778 10.1111 18.3301 10.1111 17.7778V14Z" fill="white"/>
</svg>
