<svg width="26" height="26" viewBox="0 0 26 26" fill="none" xmlns="http://www.w3.org/2000/svg">
<path d="M5.23955 0.394393C5.7599 -0.129179 6.60617 -0.131789 7.12974 0.388564L13.5451 6.76447C14.0687 7.28482 14.0713 8.13109 13.5509 8.65467C13.0306 9.17824 12.1843 9.18085 11.6607 8.6605L5.24537 2.28459C4.7218 1.76424 4.71919 0.917966 5.23955 0.394393Z" fill="white"/>
<path d="M21.4954 0.394393C20.975 -0.129179 20.1287 -0.131789 19.6052 0.388564L13.1898 6.76447C12.6662 7.28482 12.6636 8.13109 13.184 8.65467C13.7043 9.17824 14.5506 9.18085 15.0742 8.6605L21.4895 2.28459C22.0131 1.76424 22.0157 0.917966 21.4954 0.394393Z" fill="white"/>
<path fill-rule="evenodd" clip-rule="evenodd" d="M2.16667 6.70969C0.97005 6.70969 0 7.67974 0 8.87635V23.3208C0 24.5174 0.970049 25.4875 2.16667 25.4875H23.8333C25.0299 25.4875 26 24.5174 26 23.3208V8.87635C26 7.67974 25.03 6.70969 23.8333 6.70969H2.16667ZM7.94444 10.3208C6.74783 10.3208 5.77778 11.2908 5.77778 12.4875V19.7097C5.77778 20.9063 6.74783 21.8764 7.94444 21.8764H20.9444C22.1411 21.8764 23.1111 20.9063 23.1111 19.7097V12.4875C23.1111 11.2908 22.1411 10.3208 20.9444 10.3208H7.94444ZM4.33333 11.7242C4.33333 12.5219 3.68663 13.1686 2.88889 13.1686C2.09114 13.1686 1.44444 12.5219 1.44444 11.7242C1.44444 10.9264 2.09114 10.2797 2.88889 10.2797C3.68663 10.2797 4.33333 10.9264 4.33333 11.7242ZM2.88889 18.9464C3.68663 18.9464 4.33333 18.2997 4.33333 17.5019C4.33333 16.7042 3.68663 16.0575 2.88889 16.0575C2.09114 16.0575 1.44444 16.7042 1.44444 17.5019C1.44444 18.2997 2.09114 18.9464 2.88889 18.9464Z" fill="white"/>
</svg>
