<svg width="26" height="26" viewBox="0 0 26 26" fill="none" xmlns="http://www.w3.org/2000/svg">
<path fill-rule="evenodd" clip-rule="evenodd" d="M12.2157 0H3.54902C2.14124 0 1 1.14123 1 2.54902V23.451C1 24.8588 2.14123 26 3.54902 26H12.2157V0ZM9.15686 11.4706C9.15686 11.0483 9.49923 10.7059 9.92157 10.7059C10.3439 10.7059 10.6863 11.0483 10.6863 11.4706V14.5294C10.6863 14.9517 10.3439 15.2941 9.92157 15.2941C9.49923 15.2941 9.15686 14.9517 9.15686 14.5294V11.4706Z" fill="white"/>
<path fill-rule="evenodd" clip-rule="evenodd" d="M13.7451 26H22.4118C23.8196 26 24.9608 24.8588 24.9608 23.451V2.54902C24.9608 1.14124 23.8196 0 22.4118 0H13.7451V26ZM16.0392 10.7059C15.6169 10.7059 15.2745 11.0483 15.2745 11.4706V14.5294C15.2745 14.9517 15.6169 15.2941 16.0392 15.2941C16.4616 15.2941 16.8039 14.9517 16.8039 14.5294V11.4706C16.8039 11.0483 16.4616 10.7059 16.0392 10.7059Z" fill="white"/>
</svg>
